<?xml version="1.0" encoding="iso-8859-1"?>
<!-- Generator: Adobe Illustrator 25.0.1, SVG Export Plug-In . SVG Version: 6.00 Build 0)  -->
<svg version="1.1" xmlns="http://www.w3.org/2000/svg" xmlns:xlink="http://www.w3.org/1999/xlink" x="0px" y="0px"
	 viewBox="0 0 1920 1080" style="enable-background:new 0 0 1920 1080;" xml:space="preserve">
<g id="&#x5716;&#x5C64;_2">
	<g>
		<path style="fill:#F58720;" d="M8.372,18.242c0.001-0.002,0.003-0.005,0.004-0.007c-0.026,0.016-0.05,0.052-0.063,0.076
			C8.332,18.288,8.356,18.258,8.372,18.242z"/>
		<g>
			<g>
				<path style="fill:#F58720;" d="M22.147,16.545C22.186,16.504,22.207,16.477,22.147,16.545L22.147,16.545z"/>
				<path style="fill:#F58720;" d="M23.669,22.613c-0.113-0.28-0.249-0.546-0.385-0.813c-0.065-0.127-0.131-0.253-0.193-0.382
					c-0.025-0.051-0.05-0.103-0.074-0.154c-0.019-0.04-0.036-0.08-0.054-0.12c0.006-0.069-0.125-0.386-0.137-0.44
					c-0.011-0.048-0.021-0.097-0.03-0.146c-0.004-0.023-0.008-0.046-0.011-0.069c-0.003-0.061-0.006-0.121-0.008-0.181
					c0.02-0.035,0.041-0.07,0.062-0.104c0.021-0.033,0.059-0.074,0.077-0.112c0.124-0.154,0.25-0.304,0.39-0.442
					c0.037-0.036,0.074-0.071,0.112-0.106c0.072-0.047,0.139-0.113,0.208-0.162c0.182-0.128,0.372-0.239,0.569-0.337
					c0.522-0.259,0.69-1.123,0.392-1.625c-0.035-0.059-0.074-0.113-0.113-0.162c0.113-0.415,0.024-0.906-0.269-1.199
					c-0.452-0.45-1.096-0.45-1.547,0c-0.183,0.183-0.406,0.346-0.573,0.543c0.02-0.023,0.035-0.041,0.048-0.056
					c-0.021,0.022-0.048,0.048-0.07,0.064c-0.052,0.038-0.105,0.075-0.159,0.109c-0.054,0.035-0.109,0.066-0.164,0.099
					c-0.003,0.002-0.006,0.003-0.008,0.005c-0.293,0.1-0.589,0.199-0.864,0.35c-0.347,0.191-0.614,0.515-0.827,0.86
					c-0.349,0.564-0.599,1.269-0.672,1.94c-0.085,0.784,0.28,1.671,0.946,2.034c0.225,0.123,0.459,0.163,0.677,0.136
					c0.048,0.119,0.1,0.238,0.156,0.358c0.122,0.259,0.257,0.509,0.385,0.765c0.057,0.115,0.114,0.23,0.166,0.348
					c0.011,0.026,0.023,0.052,0.034,0.079c0.049,0.119,0.045,0.105-0.013-0.04c0.026,0.015,0.077,0.227,0.086,0.257
					c0.188,0.61,0.267,1.249,0.349,1.883c0.001,0.007,0.002,0.014,0.003,0.02c0.009,0.075,0.018,0.151,0.026,0.226
					c0.017,0.157,0.033,0.314,0.044,0.471c0.025,0.346,0.019,0.686,0.007,1.032c0,0.014-0.001,0.033-0.001,0.052
					c-0.01,0.063-0.026,0.127-0.038,0.186c-0.03,0.142-0.068,0.281-0.11,0.419c-0.083,0.272-0.185,0.536-0.271,0.807
					c-0.11,0.346-0.173,0.691-0.21,1.055c-0.014,0.142-0.016,0.283-0.014,0.426c0.001,0.086,0.006,0.172,0.005,0.257
					c0,0.027-0.001,0.055-0.001,0.082c0.005-0.008,0.01-0.015,0.015-0.02c0.001-0.013,0.003-0.026,0.005-0.04
					c0.004,0.008,0.005,0.019,0.003,0.032c0.01-0.009,0.017-0.011,0.02-0.007c-0.007,0.009-0.017,0.024-0.027,0.04
					c-0.001,0.004-0.003,0.008-0.004,0.012c0,0,0,0,0,0c0-0.002,0.001-0.005,0.001-0.007c-0.003,0.005-0.006,0.01-0.009,0.015
					c-0.001,0.001-0.001,0.001-0.002,0.002c0,0.001,0,0.001,0,0.002c-0.004,0.006-0.007,0.011-0.01,0.017
					c-0.006,0.004-0.011,0.007-0.017,0.011c0.001-0.002,0.002-0.005,0.003-0.007c-0.007,0.006-0.013,0.012-0.018,0.016
					c-0.09,0.058-0.178,0.116-0.272,0.166c-0.025,0.013-0.053,0.025-0.081,0.037c-0.014,0.008-0.028,0.016-0.041,0.021
					c0,0-0.001,0-0.001,0.001c-0.008,0.005-0.016,0.009-0.023,0.014c0.006-0.004,0.01-0.007,0.015-0.011
					c-0.303,0.128-0.607,0.252-0.917,0.359c-0.148,0.051-0.296,0.098-0.447,0.138l-0.611,0.119
					c-0.252,0.049-0.456,0.223-0.593,0.449c0,0,0,0,0,0c-0.199-0.051-0.395-0.116-0.586-0.192c-0.052-0.021-0.117-0.039-0.174-0.064
					c-0.014-0.01-0.031-0.021-0.048-0.029c-0.053-0.025-0.106-0.05-0.159-0.076c-0.033-0.016-0.067-0.032-0.1-0.048
					c0.218-0.306,0.4-0.65,0.554-1.014c0.25-0.592,0.462-1.162,0.495-1.819c0.029-0.566-0.143-1.124-0.378-1.62
					c-0.194-0.409-0.459-0.771-0.679-1.163c-0.061-0.109-0.116-0.22-0.169-0.333c-0.008-0.017-0.016-0.03-0.023-0.04
					c-0.003-0.015-0.006-0.028-0.01-0.043c0.02-0.175,0.024-0.351,0.002-0.528c-0.048-0.389-0.19-0.683-0.423-0.988
					c-0.169-0.221-0.441-0.326-0.712-0.336c-0.289-0.522-0.641-0.988-1.103-1.323c-0.033-0.55-0.067-1.1-0.1-1.65
					c-0.012-0.196-0.064-0.39-0.15-0.563c0.286-0.63,0.513-1.294,0.555-1.995c0.234-0.01,0.443-0.17,0.514-0.431
					c0.01-0.037,0.021-0.074,0.032-0.111c0.005-0.017,0.012-0.037,0.015-0.045c0.012-0.028,0.024-0.055,0.037-0.082
					c0.031-0.018,0.062-0.036,0.093-0.055c0.4-0.238,0.8-0.476,1.2-0.714c0.288-0.172,0.478-0.508,0.528-0.863
					c0.123-0.094,0.246-0.189,0.374-0.274c0.019-0.013,0.123-0.064,0.174-0.098c0.041-0.011,0.058-0.016,0.051-0.017
					c0.238-0.043,0.448-0.127,0.632-0.327c0.116-0.127,0.215-0.303,0.271-0.489c0.451-0.014,0.868-0.435,0.979-0.909
					c0.364-0.193,0.637-0.567,0.617-1.046c-0.025-0.603-0.483-1.238-1.094-1.188c-1.021,0.084-2.038,0.239-3.039,0.471
					c-0.075-0.055-0.181-0.062-0.279,0.022c0.134-0.142,0.086-0.449-0.145-0.429c-0.456,0.039-0.892,0.248-1.313,0.468
					c-0.083,0.037-0.166,0.076-0.246,0.119c-0.048,0.026-0.095,0.054-0.141,0.084c-0.046,0.024-0.092,0.047-0.138,0.07
					c-0.435,0.214-0.871,0.428-1.306,0.642c-0.104-0.121-0.352-0.116-0.418,0.109c-0.014,0.011-0.023,0.018-0.037,0.029
					c-0.277-0.013-0.564,0.076-0.824,0.169c-0.263,0.094-0.509,0.23-0.688,0.465c-0.098,0.13-0.054,0.29,0.037,0.374
					c-0.207,0.129-0.412,0.26-0.616,0.394c-0.134,0.088-0.163,0.347,0,0.427c0.039,0.019,0.077,0.035,0.116,0.048
					c-0.034,0.011-0.068,0.024-0.1,0.041c-0.169,0.084-0.341,0.156-0.44,0.34c-0.049,0.09-0.077,0.188-0.085,0.286
					c-0.128,0.118-0.252,0.24-0.371,0.369c-0.375,0.404-0.71,0.86-1.005,1.336c-0.117,0.189-0.22,0.386-0.331,0.579
					c-0.021,0.037-0.043,0.073-0.065,0.109c0.004-0.002,0.007-0.004,0.011-0.006c-0.003,0.001-0.008,0.006-0.015,0.013
					c-0.003,0.005-0.005,0.009-0.008,0.014c-0.015,0.025-0.027,0.042-0.036,0.054c-0.002,0.001-0.004,0.002-0.005,0.003
					c-0.004,0.002-0.009,0.005-0.014,0.008c0.001-0.003,0.003-0.007,0.005-0.011c-0.004,0.005-0.008,0.01-0.012,0.015
					c-0.003,0.002-0.007,0.004-0.01,0.007c-0.476,0.31-0.702,1.037-0.419,1.576c-0.074,0.297-0.288,0.538-0.404,0.818
					c-0.158,0.383-0.237,0.792-0.328,1.198c-0.094,0.419-0.267,0.897-0.192,1.331c0.053,0.305,0.214,0.527,0.417,0.713
					c-0.367,0.461-0.416,1.21,0.023,1.651c0.032,0.03,0.063,0.063,0.092,0.097c0.038,0.065,0.075,0.129,0.11,0.195
					c0.123,0.233,0.238,0.472,0.359,0.706c0.158,0.312,0.315,0.623,0.473,0.935c0.184,0.367,0.378,0.73,0.548,1.105
					c0.034,0.075,0.083,0.158,0.103,0.239c-0.075-0.307,0.021,0.074,0.04,0.136c0.061,0.201,0.106,0.406,0.136,0.615
					c0.04,0.275,0.291,0.575,0.503,0.71c0.135,0.086,0.307,0.143,0.479,0.158c0.091,0.186,0.226,0.347,0.401,0.456
					c0.16,0.099,0.32,0.2,0.48,0.302c0.04,0.054,0.08,0.109,0.121,0.163c0.169,0.228,0.342,0.456,0.542,0.654
					c0.313,0.309,0.653,0.529,1.02,0.689c0.208,0.193,0.421,0.38,0.646,0.555c0.996,0.775,2.249,1.095,3.468,1.046
					c0.098,0.091,0.229,0.146,0.369,0.165c0.576,0.079,1.152,0.158,1.728,0.236c0.117,0.016,0.227-0.029,0.317-0.107
					c0.595,0.042,1.193,0.027,1.788-0.027c0.576-0.052,1.171-0.162,1.656-0.529c0.591-0.448,0.933-1.072,0.989-1.854
					c0.014-0.19-0.035-0.376-0.12-0.542c0.122-0.358,0.167-0.749,0.159-1.149c-0.001-0.061-0.043-0.391,0.004-0.428
					c-0.007,0.049-0.013,0.098-0.02,0.148c0.008-0.056,0.018-0.111,0.029-0.166c0.013-0.064,0.028-0.126,0.044-0.189
					c0.064-0.251,0.143-0.497,0.233-0.738c0.55-1.471,0.342-2.983,0.135-4.493C24.103,23.977,23.944,23.29,23.669,22.613z
					 M16.409,12.263c0.015-0.006,0.029-0.013,0.043-0.021c-0.012,0.01-0.024,0.019-0.036,0.029c-0.03,0.008-0.06,0.015-0.091,0.023
					C16.353,12.283,16.381,12.273,16.409,12.263z M11.74,22.696c-0.01,0.106-0.018,0.213-0.025,0.319
					c-0.053,0.837,0.006,1.761,0.473,2.452c-0.096,0.039-0.19,0.096-0.28,0.172c-0.336,0.282-0.521,0.792-0.392,1.248
					c0.04,0.14,0.066,0.281,0.099,0.422c0.002,0.007,0.003,0.013,0.004,0.019c0.004,0.049,0.007,0.098,0.011,0.147
					c-0.222,0.072-0.446,0.141-0.669,0.211c-0.183-0.428-0.401-0.842-0.608-1.251c-0.208-0.411-0.416-0.823-0.625-1.234
					c-0.226-0.447-0.443-0.912-0.793-1.263c-0.145-0.146-0.325-0.248-0.516-0.301c-0.005-0.199-0.107-0.388-0.269-0.507
					c-0.05-0.037-0.136-0.102-0.139-0.12c0.002,0.012,0.059-0.212,0.067-0.249c0.074-0.329,0.146-0.659,0.221-0.988
					c0.061-0.266,0.125-0.513,0.258-0.747c0.092-0.163,0.188-0.321,0.263-0.489c0.192,0.006,0.39-0.043,0.575-0.155
					c0.922-0.557,1.809-1.182,2.65-1.874c0.098-0.081,0.195-0.163,0.292-0.245c-0.219,0.644-0.406,1.303-0.611,1.95
					c-0.138,0.437-0.273,0.888-0.266,1.357C11.466,21.971,11.559,22.359,11.74,22.696z"/>
			</g>
			<g>
				<path style="fill:#F58720;" d="M30.671,23.393c0.21-0.211,0.344-0.503,0.328-0.838c-0.04-0.846-0.008-1.738-0.294-2.538
					c-0.065-0.181-0.123-0.363-0.176-0.546c0.009-0.039,0.018-0.078,0.026-0.118c0.085-0.443-0.041-0.938-0.35-1.232
					c-0.024-0.119-0.049-0.238-0.072-0.357c-0.115-0.577-0.692-0.925-1.2-0.851c-0.001,0-0.003,0.001-0.004,0.001
					c0.003-0.113-0.012-0.231-0.047-0.349c-0.072-0.242-0.222-0.469-0.415-0.634c-0.029-0.097-0.064-0.191-0.108-0.284
					c-0.15-0.32-0.413-0.571-0.692-0.755c-0.193-0.127-0.394-0.242-0.597-0.354c-0.211-0.311-0.483-0.548-0.851-0.662
					c-0.039-0.012-0.081-0.025-0.122-0.035c-0.024-0.024-0.048-0.049-0.072-0.073c-0.239-0.252-0.501-0.47-0.786-0.612
					c-0.025-0.097-0.061-0.19-0.109-0.28c-0.061-0.123-0.121-0.247-0.182-0.37c-0.069-0.138-0.163-0.249-0.282-0.333
					c-0.106-0.105-0.23-0.176-0.372-0.213c-0.068-0.023-0.136-0.037-0.204-0.041c-0.019-0.013-0.039-0.026-0.06-0.038
					c-0.735-0.423-1.559-0.414-2.365-0.318c-0.04,0.005-0.08,0.01-0.12,0.016c-0.152-0.064-0.303-0.134-0.454-0.199
					c-0.52-0.225-1.07-0.337-1.629-0.365c-1.068-0.054-2.143,0.251-3.145,0.625c-0.54,0.202-0.954,0.824-0.764,1.461
					c0.176,0.591,0.762,1.034,1.345,0.829c0.216-0.076,0.434-0.143,0.656-0.198c0.111-0.027,0.222-0.052,0.333-0.074
					c0.056-0.011,0.112-0.02,0.168-0.031c0.003-0.001,0.006-0.001,0.009-0.002c0.394-0.038,0.783-0.059,1.177-0.044
					c0.005,0.3,0.106,0.597,0.313,0.803c0.334,0.333,0.926,0.5,1.325,0.186c0.129-0.101,0.262-0.194,0.403-0.272
					c0.012-0.005,0.024-0.01,0.037-0.016c0.057-0.016,0.149-0.065,0.186-0.077c0.073-0.024,0.148-0.045,0.223-0.063
					c0.025-0.006,0.05-0.011,0.075-0.017c0.122-0.022,0.101-0.021-0.063,0.005c0.016-0.015,0.047-0.024,0.085-0.029
					c0.123,0.014,0.248,0.02,0.375,0.013c0.215-0.011,0.428-0.089,0.608-0.217c0.014,0.004,0.027,0.007,0.041,0.011
					c-0.042,0.018-0.03,0.014,0.001,0c0.004,0.001,0.008,0.002,0.012,0.003c-0.392,0.213-0.694,0.633-0.678,1.113
					c-0.249,0.131-0.484,0.288-0.704,0.499c-0.387,0.37-0.639,0.852-0.809,1.373c-0.145,0.444,0.07,0.978,0.392,1.248
					c0.359,0.301,0.83,0.321,1.228,0.085c0.087,0.034,0.128,0.05,0.216,0.083c0.116,0.35,0.367,0.642,0.722,0.73
					c0.014,0.003,0.028,0.006,0.042,0.009c-0.103,0.114-0.179,0.245-0.246,0.396c-0.004,0.001-0.01,0.006-0.021,0.019
					c-0.005,0.005-0.011,0.014-0.018,0.024c-0.013,0.017-0.033,0.044-0.046,0.06c-0.146,0.178-0.287,0.361-0.413,0.557
					c-0.161,0.247-0.282,0.536-0.372,0.829c-0.194-0.188-0.394-0.37-0.6-0.547c-0.025-0.022-0.05-0.042-0.076-0.063
					c-0.029-0.041-0.061-0.081-0.096-0.119c-0.074-0.062-0.148-0.124-0.221-0.186c-0.171-0.107-0.355-0.161-0.552-0.162h-0.031
					c-0.151-0.006-0.291,0.028-0.421,0.102c-0.136,0.048-0.253,0.13-0.352,0.246c-0.107,0.108-0.182,0.235-0.226,0.382
					c-0.068,0.142-0.1,0.294-0.094,0.458c0.013,0.105,0.026,0.21,0.039,0.316c0.052,0.201,0.146,0.376,0.281,0.524
					c0.041,0.034,0.081,0.068,0.122,0.103c0.025,0.028,0.051,0.054,0.08,0.079c0.5,0.428,0.98,0.886,1.404,1.402
					c-0.005,0.032-0.009,0.064-0.012,0.098c-0.054,0.61,0.081,1.225,0.328,1.772c0.078,0.172,0.169,0.342,0.26,0.507
					c0.001,0.008,0.004,0.019,0.006,0.03c0,0.005,0,0.009,0,0.013c0,0.042-0.001,0.083-0.005,0.125
					c-0.007,0.089-0.002,0.057,0.015-0.097c0.002,0.008,0.004,0.015,0.006,0.021c0.002,0.075-0.048,0.203-0.061,0.264
					c-0.025,0.113-0.052,0.226-0.078,0.339c-0.07,0.309-0.124,0.627-0.139,0.945c-0.018,0.389,0.047,0.771,0.162,1.136
					c-0.099,0.257-0.198,0.513-0.291,0.769c-0.077,0.211-0.155,0.422-0.231,0.633c-0.003,0.007-0.006,0.015-0.01,0.023
					c-0.037,0.087-0.075,0.174-0.117,0.258c-0.036,0.072-0.073,0.142-0.114,0.211c-0.023,0.023-0.045,0.046-0.066,0.072
					c-0.003,0.003-0.006,0.007-0.009,0.011c0.004-0.002,0.007-0.003,0.011-0.005c-0.003,0.003-0.005,0.006-0.008,0.009
					c-0.006,0.004-0.012,0.008-0.018,0.012c-0.003,0.003-0.006,0.006-0.01,0.01c-0.003,0.001-0.005,0.002-0.008,0.003
					c-0.004,0.003-0.009,0.007-0.012,0.01c-0.015,0.013-0.018,0.018-0.013,0.019c-0.004,0.004-0.008,0.008-0.012,0.011
					c-0.021,0.011-0.024-0.002-0.005-0.021c-0.497,0.229-0.853,0.827-0.675,1.424c0.181,0.607,0.756,1.013,1.345,0.829
					c0.136-0.042,0.27-0.099,0.397-0.169c0.005,0.072,0.017,0.142,0.036,0.207c0.185,0.622,0.751,0.994,1.345,0.829
					c0.203-0.056,0.395-0.136,0.579-0.233c0.217,0.097,0.445,0.1,0.702,0.054c0.912-0.163,1.47-1.061,1.927-1.836
					c0.035-0.042,0.091-0.109,0.126-0.152c0.024-0.021,0.048-0.042,0.073-0.063c0.012-0.01,0.03-0.026,0.048-0.042
					c0.036-0.03,0.072-0.06,0.109-0.089c0.115-0.095,0.232-0.188,0.349-0.279c0.413-0.322,0.859-0.614,1.223-1.004
					c0.194-0.208,0.374-0.453,0.504-0.714c0.088-0.177,0.155-0.369,0.225-0.554c0.011-0.028,0.021-0.057,0.032-0.085
					c0.014-0.034,0.029-0.067,0.044-0.1c0.204-0.434,0.524-0.791,0.743-1.218c0.255-0.496,0.462-1.043,0.575-1.598
					c0.113-0.557,0.168-1.142,0.106-1.71C30.767,23.886,30.724,23.638,30.671,23.393z M25.42,32.793
					c0.001-0.001,0.002-0.002,0.003-0.003C25.321,32.973,25.355,32.865,25.42,32.793z M28.204,25.302
					c-0.008,0.042-0.016,0.091-0.02,0.115c-0.014,0.093-0.028,0.185-0.044,0.277c-0.037,0.215-0.08,0.428-0.128,0.641
					c-0.021,0.096-0.031,0.194-0.031,0.292c-0.152,0.233-0.312,0.46-0.444,0.708c-0.054,0.102-0.099,0.208-0.142,0.315
					c-0.107-0.035-0.216-0.049-0.325-0.046c0.004-0.116-0.009-0.229-0.042-0.334c-0.146-0.471-0.39-0.885-0.745-1.202
					c-0.178-0.16-0.365-0.309-0.553-0.455c-0.054-0.042-0.108-0.084-0.162-0.127c-0.023-0.023-0.046-0.045-0.069-0.067
					c-0.063-0.119-0.134-0.233-0.214-0.338c-0.057-0.13-0.114-0.26-0.17-0.392c-0.181-0.421-0.469-0.762-0.774-1.081
					c-0.055-0.057-0.11-0.114-0.163-0.173c-0.025-0.028-0.05-0.057-0.074-0.086c-0.008-0.013-0.016-0.026-0.023-0.039
					c0.014-0.395,0.014-0.787,0.047-1.181c0.005-0.033,0.01-0.067,0.016-0.1c0.019-0.102,0.041-0.204,0.068-0.304
					c0.013-0.05,0.028-0.099,0.043-0.147c0.001-0.003,0.002-0.006,0.003-0.009c0.037-0.076,0.091-0.181,0.099-0.194
					c0.011-0.019,0.024-0.038,0.035-0.057c0.002-0.003,0.004-0.005,0.006-0.008c0.063-0.072,0.124-0.148,0.183-0.224
					c0.133-0.17,0.23-0.32,0.315-0.483c0.131-0.02,0.261-0.067,0.382-0.145c0.308-0.199,0.581-0.433,0.823-0.698
					c0.203-0.097,0.377-0.257,0.497-0.478c0.065-0.12,0.11-0.259,0.133-0.404c0.026-0.046,0.051-0.093,0.075-0.141
					c0.037-0.028,0.073-0.055,0.11-0.082c0.212-0.151,0.432-0.285,0.66-0.405c0.083-0.044,0.159-0.106,0.226-0.181
					c0.061-0.003,0.121-0.013,0.182-0.027c0,0.004,0,0.008,0,0.012c0.002,0.118,0.001,0.236-0.006,0.354
					c-0.003,0.045-0.006,0.089-0.01,0.134c-0.045,0.233-0.102,0.455-0.165,0.683c-0.02,0.072-0.036,0.144-0.05,0.216
					c-0.182,0.208-0.295,0.488-0.305,0.808c-0.007,0.248,0.012,0.497,0.046,0.743c-0.12,0.548-0.116,1.116,0.073,1.673
					c0.141,0.416,0.33,0.756,0.545,1.125c0.013,0.023,0.055,0.082,0.086,0.135c0.012,0.037,0.023,0.074,0.033,0.112
					c0.005,0.023,0.01,0.045,0.016,0.068c0.002,0.064,0.015,0.137,0.016,0.193C28.271,24.625,28.256,24.977,28.204,25.302z"/>
				<path style="fill:#F58720;" d="M21.04,30.589c0.005-0.006,0.01-0.011,0.015-0.016c-0.036,0.015-0.061,0.033-0.074,0.047
					c0.014-0.006,0.028-0.013,0.042-0.019C21.028,30.598,21.033,30.594,21.04,30.589z"/>
			</g>
		</g>
	</g>
	<path style="fill:#14FF8C;" d="M21.746,15.334c0.175-0.285,0.032-0.634-0.196-0.812c-0.314-0.245-0.738-0.15-1.026,0.091
		c-0.095,0.079-0.189,0.194-0.283,0.248c-0.105,0.06-0.228,0.085-0.339,0.129c-0.349,0.138-0.629,0.359-0.907,0.622
		c-0.142,0.134-0.287,0.267-0.426,0.406c-0.063,0.005-0.127,0.01-0.19,0.016c-0.244,0.023-0.46,0.074-0.645,0.264
		c-0.132,0.136-0.216,0.327-0.305,0.495c-0.094,0.179-0.189,0.357-0.283,0.536c-0.081,0.035-0.162,0.07-0.239,0.107
		c-0.627,0.299-1.131,0.806-1.193,1.579c-0.002,0.026-0.001,0.053,0.001,0.08c-0.054,0.063-0.1,0.137-0.134,0.221
		c-0.016,0.04-0.032,0.08-0.047,0.121c-0.157,0.027-0.305,0.081-0.43,0.224c-0.316,0.359-0.147,0.779,0.036,1.152
		c-0.037,0.079-0.055,0.171-0.044,0.276c0.033,0.326,0.029,0.695,0.107,1.011c0.107,0.433,0.435,0.564,0.808,0.593
		c0.023,0.002,0.045,0.003,0.068,0.005c0.034,0.268,0.089,0.527,0.19,0.761c0.111,0.258,0.278,0.49,0.425,0.725
		c0.148,0.237,0.289,0.503,0.489,0.693c0.077,0.073,0.156,0.13,0.239,0.175c0.035,0.466,0.277,0.866,0.612,1.147
		c0.038,0.053,0.086,0.101,0.144,0.139c0.037,0.024,0.046,0.029,0.053,0.039c0.005,0.013,0.055,0.119,0.052,0.103
		c0.017,0.052,0.03,0.107,0.04,0.16c-0.001-0.003,0.02,0.138,0.02,0.127c0.034,0.335,0.01,0.677,0.019,1.013
		c0.021,0.825,0.134,1.619,0.435,2.38c0.024,0.061,0.062,0.112,0.11,0.154c-0.154,0.144-0.308,0.288-0.462,0.432
		c-0.256,0.239-0.191,0.772,0.111,0.933c0.627,0.334,1.362,0.158,1.844-0.387c0.503-0.568,0.613-1.374,0.641-2.13
		c0.001-0.028-0.001-0.054-0.004-0.081c0.585-0.802,0.989-1.931,0.372-2.848c0.027-0.096,0.055-0.191,0.081-0.287
		c0.051-0.185,0.014-0.353-0.071-0.482c0.042-0.371-0.115-0.731-0.269-1.055c-0.181-0.382-0.374-0.881-0.669-1.196
		c0.091-0.181,0.109-0.41-0.004-0.58c-0.364-0.547-0.834-0.979-1.39-1.249c0.006-0.062,0.01-0.124,0.014-0.186
		c0.022-0.368-0.004-0.778-0.139-1.124c0.189-0.37,0.344-0.746,0.416-1.186c0.021-0.131,0.008-0.261-0.033-0.374
		c0.157-0.157,0.329-0.295,0.526-0.399c0.188-0.099,0.279-0.339,0.264-0.559c0.011-0.013,0.023-0.027,0.035-0.04
		c0.092-0.102,0.184-0.204,0.276-0.306c0.124-0.137,0.171-0.358,0.14-0.557C21.091,16.373,21.438,15.836,21.746,15.334z"/>
	<path style="fill:#14FF8C;" d="M11.761,24.404c-0.089-0.551-0.337-1.051-0.714-1.42c0.158-0.132,0.251-0.351,0.186-0.609
		c-0.088-0.344-0.205-0.673-0.341-0.998c-0.021-0.049-0.049-0.092-0.084-0.129c0.379-0.308,0.655-0.739,0.782-1.247
		c0.185-0.738-0.87-1.053-1.055-0.316c-0.058,0.231-0.164,0.439-0.352,0.598c-0.083,0.07-0.211,0.13-0.314,0.195
		c-0.169,0.107-0.312,0.239-0.433,0.405c-0.091,0.124-0.172,0.257-0.248,0.392c-0.53,0.41-0.876,1.206-0.569,1.858
		c0.04,0.085,0.094,0.148,0.155,0.194c0.063,0.222,0.126,0.444,0.188,0.666c0.065,0.229,0.123,0.466,0.289,0.636
		c0.253,0.259,0.618,0.173,0.8,0.465c0.021,0.034,0.045,0.064,0.07,0.092c-0.012,0.05-0.018,0.102-0.014,0.155
		c0.037,0.535,0.182,1.046,0.473,1.483c0.131,0.196,0.312,0.322,0.545,0.283c0.206-0.034,0.405-0.194,0.455-0.425
		C11.743,25.933,11.884,25.174,11.761,24.404z M9.883,22.34c0.002,0.003,0.004,0.006,0.006,0.009
		c-0.002,0.011-0.003,0.022-0.005,0.033c-0.009,0.002-0.018,0.004-0.027,0.006C9.865,22.372,9.874,22.356,9.883,22.34z"/>
	<path style="fill:#14FF8C;" d="M27.685,25.727c0.02-0.065,0.037-0.13,0.05-0.197c0.105-0.101,0.17-0.244,0.154-0.421
		c-0.025-0.268-0.099-0.513-0.223-0.729c-0.056-0.267-0.123-0.533-0.172-0.785c-0.022-0.112-0.081-0.208-0.159-0.281
		c-0.076-0.708-0.179-1.412-0.305-2.111c-0.008-0.047-0.022-0.09-0.04-0.13c0.236-0.294,0.438-0.625,0.628-0.947
		c0.159-0.27,0.051-0.655-0.196-0.812c-0.264-0.168-0.588-0.058-0.748,0.213c-0.11,0.187-0.221,0.373-0.343,0.547
		c-0.157-0.011-0.321,0.041-0.418,0.17c-0.166,0.221-0.332,0.442-0.498,0.663c-0.042,0.056-0.074,0.114-0.098,0.172
		c-0.003,0.002-0.006,0.004-0.009,0.006c-0.425,0.317-0.693,0.764-0.772,1.302c-0.072,0.069-0.127,0.16-0.154,0.272
		c-0.118,0.49-0.192,1.036,0.058,1.496c0.22,0.404,0.647,0.583,0.933,0.881c0.35,0.365,0.648,0.789,1.001,1.145
		c-0.034,0.171-0.036,0.35,0.028,0.551c0.096,0.303,0.376,0.503,0.673,0.415c0.163-0.049,0.302-0.192,0.366-0.364
		C27.867,26.72,28.029,26.007,27.685,25.727z"/>
</g>
<g id="&#x5716;&#x5C64;_1">
	<path style="fill:none;stroke:#000000;stroke-miterlimit:10;" d="M12.183,18.299c-0.545,0.344-4.371,2.804-3.965,4.652
		c0.065,0.294,0.242,0.596,0.501,1.039c0.719,1.227,1.26,1.321,1.686,2.326c0.34,0.802,0.207,1.24,0.41,1.287
		c0.416,0.096,1.475-1.617,1.23-3.266c-0.125-0.839-0.493-1.029-0.729-1.781C11.059,21.732,11.012,20.404,12.183,18.299z"/>
	<path style="fill:none;stroke:#000000;stroke-miterlimit:10;" d="M22.527,14.043c-1.225,0.3-5.283,1.443-7.064,4.8
		c-0.313,0.59-0.732,1.404-0.638,2.425c0.149,1.618,1.396,1.709,2.552,3.909c0.15,0.286,1.92,3.737,0.866,5.691
		c-0.13,0.24-0.411,0.659-0.273,0.891c0.206,0.347,1.213,0.06,1.549-0.099c2.133-1.006,3.157-6.186,1.322-8.511
		c-0.591-0.75-1.054-0.664-1.413-1.287C18.427,20.123,20.484,16.763,22.527,14.043z"/>
	<path style="fill:none;stroke:#000000;stroke-miterlimit:10;" d="M2059.5,376.5"/>
	<path style="fill:none;stroke:#000000;stroke-miterlimit:10;" d="M28.099,18.301c-0.545,0.344-4.371,2.804-3.965,4.652
		c0.065,0.294,0.242,0.596,0.501,1.039c0.719,1.227,1.26,1.321,1.686,2.326c0.34,0.802,0.207,1.24,0.41,1.287
		c0.416,0.096,1.475-1.617,1.23-3.266c-0.125-0.839-0.493-1.029-0.729-1.781C26.975,21.734,26.928,20.406,28.099,18.301z"/>
	<ellipse style="fill:none;stroke:#000000;stroke-width:2;stroke-miterlimit:10;" cx="19.155" cy="23" rx="11.826" ry="12"/>
</g>
</svg>
